<svg xmlns="http://www.w3.org/2000/svg" xmlns:xlink="http://www.w3.org/1999/xlink" width="500" zoomAndPan="magnify" viewBox="0 0 375 374.999991" height="500" preserveAspectRatio="xMidYMid meet" version="1.2"><g id="8091d7a779"><path style=" stroke:none;fill-rule:nonzero;fill:#4dff89;fill-opacity:1;" d="M 217.804688 0 L 93.75 0 C 92.214844 0 90.683594 0.0742188 89.15625 0.226562 C 87.628906 0.375 86.109375 0.601562 84.605469 0.902344 C 83.097656 1.199219 81.613281 1.574219 80.144531 2.019531 C 78.671875 2.464844 77.230469 2.980469 75.8125 3.566406 C 74.394531 4.15625 73.007812 4.8125 71.652344 5.535156 C 70.300781 6.257812 68.984375 7.046875 67.707031 7.898438 C 66.429688 8.753906 65.199219 9.667969 64.011719 10.640625 C 62.824219 11.613281 61.691406 12.644531 60.605469 13.730469 C 59.519531 14.816406 58.488281 15.949219 57.515625 17.136719 C 56.542969 18.324219 55.628906 19.554688 54.773438 20.832031 C 53.921875 22.109375 53.132812 23.425781 52.410156 24.777344 C 51.6875 26.132812 51.03125 27.519531 50.441406 28.9375 C 49.855469 30.355469 49.339844 31.796875 48.894531 33.269531 C 48.449219 34.738281 48.074219 36.222656 47.777344 37.730469 C 47.476562 39.234375 47.25 40.753906 47.101562 42.28125 C 46.949219 43.808594 46.875 45.339844 46.875 46.875 L 46.875 328.125 C 46.875 329.660156 46.949219 331.191406 47.101562 332.71875 C 47.25 334.246094 47.476562 335.765625 47.777344 337.269531 C 48.074219 338.777344 48.449219 340.261719 48.894531 341.730469 C 49.339844 343.199219 49.855469 344.644531 50.441406 346.0625 C 51.03125 347.480469 51.6875 348.867188 52.410156 350.222656 C 53.132812 351.574219 53.921875 352.890625 54.773438 354.167969 C 55.628906 355.445312 56.542969 356.675781 57.515625 357.863281 C 58.488281 359.050781 59.519531 360.183594 60.605469 361.269531 C 61.691406 362.355469 62.824219 363.386719 64.011719 364.359375 C 65.199219 365.332031 66.429688 366.246094 67.707031 367.101562 C 68.984375 367.953125 70.300781 368.742188 71.652344 369.464844 C 73.007812 370.1875 74.394531 370.84375 75.8125 371.433594 C 77.230469 372.019531 78.671875 372.535156 80.144531 372.980469 C 81.613281 373.425781 83.097656 373.800781 84.605469 374.097656 C 86.109375 374.398438 87.628906 374.625 89.15625 374.773438 C 90.683594 374.925781 92.214844 375 93.75 375 L 281.25 375 C 282.785156 375 284.316406 374.925781 285.84375 374.773438 C 287.371094 374.625 288.890625 374.398438 290.394531 374.097656 C 291.902344 373.800781 293.386719 373.425781 294.855469 372.980469 C 296.324219 372.535156 297.769531 372.019531 299.1875 371.433594 C 300.605469 370.84375 301.992188 370.1875 303.347656 369.464844 C 304.699219 368.742188 306.015625 367.953125 307.292969 367.101562 C 308.570312 366.246094 309.800781 365.332031 310.988281 364.359375 C 312.175781 363.386719 313.308594 362.355469 314.394531 361.269531 C 315.480469 360.183594 316.511719 359.050781 317.484375 357.863281 C 318.457031 356.675781 319.371094 355.445312 320.226562 354.167969 C 321.078125 352.890625 321.867188 351.574219 322.589844 350.222656 C 323.3125 348.867188 323.96875 347.480469 324.558594 346.0625 C 325.144531 344.644531 325.660156 343.199219 326.105469 341.730469 C 326.550781 340.261719 326.925781 338.777344 327.222656 337.269531 C 327.523438 335.765625 327.75 334.246094 327.898438 332.71875 C 328.050781 331.191406 328.125 329.660156 328.125 328.125 L 328.125 110.320312 C 328.125 108.78125 327.972656 107.257812 327.671875 105.75 C 327.375 104.238281 326.929688 102.773438 326.339844 101.351562 C 325.75 99.929688 325.027344 98.582031 324.171875 97.300781 C 323.316406 96.023438 322.347656 94.839844 321.257812 93.75 L 234.375 6.867188 C 233.285156 5.777344 232.101562 4.808594 230.824219 3.953125 C 229.542969 3.097656 228.195312 2.375 226.773438 1.785156 C 225.351562 1.195312 223.886719 0.75 222.375 0.453125 C 220.867188 0.152344 219.34375 0 217.804688 0 M 222.65625 82.03125 L 222.65625 35.15625 L 292.96875 105.46875 L 246.09375 105.46875 C 245.324219 105.46875 244.558594 105.429688 243.796875 105.355469 C 243.03125 105.28125 242.273438 105.167969 241.519531 105.019531 C 240.769531 104.867188 240.023438 104.683594 239.289062 104.460938 C 238.554688 104.238281 237.832031 103.976562 237.125 103.683594 C 236.414062 103.390625 235.722656 103.0625 235.046875 102.703125 C 234.367188 102.339844 233.710938 101.945312 233.074219 101.519531 C 232.433594 101.09375 231.820312 100.636719 231.226562 100.148438 C 230.632812 99.660156 230.0625 99.148438 229.519531 98.605469 C 228.976562 98.0625 228.464844 97.492188 227.976562 96.898438 C 227.488281 96.304688 227.03125 95.691406 226.605469 95.050781 C 226.179688 94.414062 225.785156 93.757812 225.421875 93.078125 C 225.0625 92.402344 224.734375 91.710938 224.441406 91 C 224.148438 90.292969 223.886719 89.570312 223.664062 88.835938 C 223.441406 88.101562 223.257812 87.355469 223.105469 86.605469 C 222.957031 85.851562 222.84375 85.09375 222.769531 84.328125 C 222.695312 83.566406 222.65625 82.800781 222.65625 82.03125 M 257.8125 187.5 C 257.8125 188.652344 257.785156 189.800781 257.726562 190.949219 C 257.671875 192.097656 257.585938 193.246094 257.472656 194.390625 C 257.359375 195.535156 257.21875 196.679688 257.050781 197.816406 C 256.882812 198.957031 256.6875 200.089844 256.460938 201.21875 C 256.238281 202.347656 255.984375 203.46875 255.707031 204.585938 C 255.425781 205.699219 255.117188 206.808594 254.785156 207.910156 C 254.449219 209.011719 254.089844 210.105469 253.703125 211.1875 C 253.316406 212.269531 252.902344 213.34375 252.460938 214.40625 C 252.019531 215.46875 251.554688 216.523438 251.0625 217.5625 C 250.570312 218.601562 250.050781 219.628906 249.511719 220.644531 C 248.96875 221.660156 248.402344 222.660156 247.808594 223.648438 C 247.21875 224.636719 246.601562 225.605469 245.960938 226.5625 C 245.324219 227.519531 244.660156 228.460938 243.976562 229.386719 C 243.289062 230.308594 242.582031 231.214844 241.851562 232.105469 C 241.121094 232.996094 240.371094 233.867188 239.597656 234.71875 C 238.824219 235.570312 238.03125 236.40625 237.21875 237.21875 C 236.40625 238.03125 235.570312 238.824219 234.71875 239.597656 C 233.867188 240.371094 232.996094 241.121094 232.105469 241.851562 C 231.214844 242.582031 230.308594 243.289062 229.386719 243.976562 C 228.460938 244.660156 227.519531 245.324219 226.5625 245.960938 C 225.605469 246.601562 224.636719 247.21875 223.648438 247.808594 C 222.660156 248.402344 221.660156 248.96875 220.644531 249.511719 C 219.628906 250.050781 218.601562 250.570312 217.5625 251.0625 C 216.523438 251.554688 215.46875 252.019531 214.40625 252.460938 C 213.34375 252.902344 212.269531 253.316406 211.1875 253.703125 C 210.105469 254.089844 209.011719 254.449219 207.910156 254.785156 C 206.808594 255.117188 205.699219 255.425781 204.585938 255.707031 C 203.46875 255.984375 202.347656 256.238281 201.21875 256.460938 C 200.089844 256.6875 198.957031 256.882812 197.816406 257.050781 C 196.679688 257.21875 195.535156 257.359375 194.390625 257.472656 C 193.246094 257.585938 192.097656 257.671875 190.949219 257.726562 C 189.800781 257.785156 188.652344 257.8125 187.5 257.8125 C 186.347656 257.8125 185.199219 257.785156 184.050781 257.726562 C 182.902344 257.671875 181.753906 257.585938 180.609375 257.472656 C 179.464844 257.359375 178.320312 257.21875 177.183594 257.050781 C 176.042969 256.882812 174.910156 256.6875 173.78125 256.460938 C 172.652344 256.238281 171.53125 255.984375 170.414062 255.707031 C 169.300781 255.425781 168.191406 255.117188 167.089844 254.785156 C 165.988281 254.449219 164.894531 254.089844 163.8125 253.703125 C 162.730469 253.316406 161.65625 252.902344 160.59375 252.460938 C 159.53125 252.019531 158.476562 251.554688 157.4375 251.0625 C 156.398438 250.570312 155.371094 250.050781 154.355469 249.511719 C 153.339844 248.96875 152.339844 248.402344 151.351562 247.808594 C 150.363281 247.21875 149.394531 246.601562 148.4375 245.960938 C 147.480469 245.324219 146.539062 244.660156 145.613281 243.976562 C 144.691406 243.289062 143.785156 242.582031 142.894531 241.851562 C 142.003906 241.121094 141.132812 240.371094 140.28125 239.597656 C 139.429688 238.824219 138.59375 238.03125 137.78125 237.21875 C 136.96875 236.40625 136.175781 235.570312 135.402344 234.71875 C 134.628906 233.867188 133.878906 232.996094 133.148438 232.105469 C 132.417969 231.214844 131.710938 230.308594 131.023438 229.386719 C 130.339844 228.460938 129.675781 227.519531 129.039062 226.5625 C 128.398438 225.605469 127.78125 224.636719 127.191406 223.648438 C 126.597656 222.660156 126.03125 221.660156 125.488281 220.644531 C 124.949219 219.628906 124.429688 218.601562 123.9375 217.5625 C 123.445312 216.523438 122.980469 215.46875 122.539062 214.40625 C 122.097656 213.34375 121.683594 212.269531 121.296875 211.1875 C 120.910156 210.105469 120.550781 209.011719 120.214844 207.910156 C 119.882812 206.808594 119.574219 205.699219 119.292969 204.585938 C 119.015625 203.46875 118.761719 202.347656 118.539062 201.21875 C 118.3125 200.089844 118.117188 198.957031 117.949219 197.816406 C 117.78125 196.679688 117.640625 195.535156 117.527344 194.390625 C 117.414062 193.246094 117.328125 192.097656 117.273438 190.949219 C 117.214844 189.800781 117.1875 188.652344 117.1875 187.5 C 117.1875 186.347656 117.214844 185.199219 117.273438 184.050781 C 117.328125 182.902344 117.414062 181.753906 117.527344 180.609375 C 117.640625 179.464844 117.78125 178.320312 117.949219 177.183594 C 118.117188 176.042969 118.3125 174.910156 118.539062 173.78125 C 118.761719 172.652344 119.015625 171.53125 119.292969 170.414062 C 119.574219 169.300781 119.882812 168.191406 120.214844 167.089844 C 120.550781 165.988281 120.910156 164.894531 121.296875 163.8125 C 121.683594 162.730469 122.097656 161.65625 122.539062 160.59375 C 122.980469 159.53125 123.445312 158.476562 123.9375 157.4375 C 124.429688 156.398438 124.949219 155.371094 125.488281 154.355469 C 126.03125 153.339844 126.597656 152.339844 127.191406 151.351562 C 127.78125 150.363281 128.398438 149.394531 129.039062 148.4375 C 129.675781 147.480469 130.339844 146.539062 131.023438 145.613281 C 131.710938 144.691406 132.417969 143.785156 133.148438 142.894531 C 133.878906 142.003906 134.628906 141.132812 135.402344 140.28125 C 136.175781 139.429688 136.96875 138.59375 137.78125 137.78125 C 138.59375 136.96875 139.429688 136.175781 140.28125 135.402344 C 141.132812 134.628906 142.003906 133.878906 142.894531 133.148438 C 143.785156 132.417969 144.691406 131.710938 145.613281 131.023438 C 146.539062 130.339844 147.480469 129.675781 148.4375 129.039062 C 149.394531 128.398438 150.363281 127.78125 151.351562 127.191406 C 152.339844 126.597656 153.339844 126.03125 154.355469 125.488281 C 155.371094 124.949219 156.398438 124.429688 157.4375 123.9375 C 158.476562 123.445312 159.53125 122.980469 160.59375 122.539062 C 161.65625 122.097656 162.730469 121.683594 163.8125 121.296875 C 164.894531 120.910156 165.988281 120.550781 167.089844 120.214844 C 168.191406 119.882812 169.300781 119.574219 170.414062 119.292969 C 171.53125 119.015625 172.652344 118.761719 173.78125 118.539062 C 174.910156 118.3125 176.042969 118.117188 177.183594 117.949219 C 178.320312 117.78125 179.464844 117.640625 180.609375 117.527344 C 181.753906 117.414062 182.902344 117.328125 184.050781 117.273438 C 185.199219 117.214844 186.347656 117.1875 187.5 117.1875 C 188.652344 117.1875 189.800781 117.214844 190.949219 117.273438 C 192.097656 117.328125 193.246094 117.414062 194.390625 117.527344 C 195.535156 117.640625 196.679688 117.78125 197.816406 117.949219 C 198.957031 118.117188 200.089844 118.3125 201.21875 118.539062 C 202.347656 118.761719 203.46875 119.015625 204.585938 119.292969 C 205.699219 119.574219 206.808594 119.882812 207.910156 120.214844 C 209.011719 120.550781 210.105469 120.910156 211.1875 121.296875 C 212.269531 121.683594 213.34375 122.097656 214.40625 122.539062 C 215.46875 122.980469 216.523438 123.445312 217.5625 123.9375 C 218.601562 124.429688 219.628906 124.949219 220.644531 125.488281 C 221.660156 126.03125 222.660156 126.597656 223.648438 127.191406 C 224.636719 127.78125 225.605469 128.398438 226.5625 129.039062 C 227.519531 129.675781 228.460938 130.339844 229.386719 131.023438 C 230.308594 131.710938 231.214844 132.417969 232.105469 133.148438 C 232.996094 133.878906 233.867188 134.628906 234.71875 135.402344 C 235.570312 136.175781 236.40625 136.96875 237.21875 137.78125 C 238.03125 138.59375 238.824219 139.429688 239.597656 140.28125 C 240.371094 141.132812 241.121094 142.003906 241.851562 142.894531 C 242.582031 143.785156 243.289062 144.691406 243.976562 145.613281 C 244.660156 146.539062 245.324219 147.480469 245.960938 148.4375 C 246.601562 149.394531 247.21875 150.363281 247.808594 151.351562 C 248.402344 152.339844 248.96875 153.339844 249.511719 154.355469 C 250.050781 155.371094 250.570312 156.398438 251.0625 157.4375 C 251.554688 158.476562 252.019531 159.53125 252.460938 160.59375 C 252.902344 161.65625 253.316406 162.730469 253.703125 163.8125 C 254.089844 164.894531 254.449219 165.988281 254.785156 167.089844 C 255.117188 168.191406 255.425781 169.300781 255.707031 170.414062 C 255.984375 171.53125 256.238281 172.652344 256.460938 173.78125 C 256.6875 174.910156 256.882812 176.042969 257.050781 177.183594 C 257.21875 178.320312 257.359375 179.464844 257.472656 180.609375 C 257.585938 181.753906 257.671875 182.902344 257.726562 184.050781 C 257.785156 185.199219 257.8125 186.347656 257.8125 187.5 M 304.6875 322.382812 L 304.6875 328.125 C 304.6875 328.894531 304.648438 329.660156 304.574219 330.421875 C 304.5 331.1875 304.386719 331.945312 304.238281 332.699219 C 304.085938 333.449219 303.902344 334.195312 303.679688 334.929688 C 303.457031 335.664062 303.195312 336.386719 302.902344 337.09375 C 302.609375 337.804688 302.28125 338.496094 301.921875 339.171875 C 301.558594 339.851562 301.164062 340.507812 300.738281 341.144531 C 300.3125 341.785156 299.855469 342.398438 299.367188 342.992188 C 298.878906 343.585938 298.367188 344.15625 297.824219 344.699219 C 297.28125 345.242188 296.710938 345.753906 296.117188 346.242188 C 295.523438 346.730469 294.910156 347.1875 294.269531 347.613281 C 293.632812 348.039062 292.976562 348.433594 292.296875 348.796875 C 291.621094 349.15625 290.929688 349.484375 290.21875 349.777344 C 289.511719 350.070312 288.789062 350.332031 288.054688 350.554688 C 287.320312 350.777344 286.574219 350.960938 285.824219 351.113281 C 285.070312 351.261719 284.3125 351.375 283.546875 351.449219 C 282.785156 351.523438 282.019531 351.5625 281.25 351.5625 L 93.75 351.5625 C 92.980469 351.5625 92.214844 351.523438 91.453125 351.449219 C 90.6875 351.375 89.929688 351.261719 89.175781 351.113281 C 88.425781 350.960938 87.679688 350.777344 86.945312 350.554688 C 86.210938 350.332031 85.488281 350.070312 84.78125 349.777344 C 84.070312 349.484375 83.378906 349.15625 82.703125 348.796875 C 82.023438 348.433594 81.367188 348.039062 80.730469 347.613281 C 80.089844 347.1875 79.476562 346.730469 78.882812 346.242188 C 78.289062 345.753906 77.71875 345.242188 77.175781 344.699219 C 76.632812 344.15625 76.121094 343.585938 75.632812 342.992188 C 75.144531 342.398438 74.6875 341.785156 74.261719 341.144531 C 73.835938 340.507812 73.441406 339.851562 73.078125 339.171875 C 72.71875 338.496094 72.390625 337.804688 72.097656 337.09375 C 71.804688 336.386719 71.542969 335.664062 71.320312 334.929688 C 71.097656 334.195312 70.914062 333.449219 70.761719 332.699219 C 70.613281 331.945312 70.5 331.1875 70.425781 330.421875 C 70.351562 329.660156 70.3125 328.894531 70.3125 328.125 L 70.3125 322.382812 C 70.3125 322.382812 93.75 281.25 187.5 281.25 C 281.25 281.25 304.6875 322.382812 304.6875 322.382812 "/></g></svg>