<svg xmlns="http://www.w3.org/2000/svg" xmlns:xlink="http://www.w3.org/1999/xlink" width="500" zoomAndPan="magnify" viewBox="0 0 375 374.999991" height="500" preserveAspectRatio="xMidYMid meet" version="1.2"><g id="b5fe20388d"><path style=" stroke:none;fill-rule:nonzero;fill:#ffffff;fill-opacity:1;" d="M 0 93.75 C 0 93.75 0 46.875 46.875 46.875 L 328.125 46.875 C 328.125 46.875 375 46.875 375 93.75 L 375 234.375 C 375 234.375 375 281.25 328.125 281.25 L 234.375 281.25 C 234.375 296.875 236.328125 308.59375 240.234375 316.40625 L 257.8125 316.40625 C 258.582031 316.40625 259.34375 316.480469 260.097656 316.632812 C 260.851562 316.78125 261.585938 317.003906 262.296875 317.296875 C 263.007812 317.59375 263.683594 317.953125 264.324219 318.382812 C 264.960938 318.808594 265.554688 319.292969 266.097656 319.839844 C 266.644531 320.382812 267.128906 320.972656 267.554688 321.613281 C 267.984375 322.253906 268.34375 322.929688 268.640625 323.640625 C 268.933594 324.351562 269.15625 325.085938 269.304688 325.839844 C 269.457031 326.59375 269.53125 327.355469 269.53125 328.125 C 269.53125 328.894531 269.457031 329.65625 269.304688 330.410156 C 269.15625 331.164062 268.933594 331.898438 268.640625 332.609375 C 268.34375 333.320312 267.984375 333.996094 267.554688 334.636719 C 267.128906 335.273438 266.644531 335.867188 266.097656 336.410156 C 265.554688 336.957031 264.960938 337.441406 264.324219 337.867188 C 263.683594 338.296875 263.007812 338.65625 262.296875 338.953125 C 261.585938 339.246094 260.851562 339.46875 260.097656 339.617188 C 259.34375 339.769531 258.582031 339.84375 257.8125 339.84375 L 117.1875 339.84375 C 116.417969 339.84375 115.65625 339.769531 114.902344 339.617188 C 114.148438 339.46875 113.414062 339.246094 112.703125 338.953125 C 111.992188 338.65625 111.316406 338.296875 110.675781 337.867188 C 110.035156 337.441406 109.445312 336.957031 108.902344 336.410156 C 108.355469 335.867188 107.871094 335.273438 107.445312 334.636719 C 107.015625 333.996094 106.65625 333.320312 106.359375 332.609375 C 106.066406 331.898438 105.84375 331.164062 105.695312 330.410156 C 105.542969 329.65625 105.46875 328.894531 105.46875 328.125 C 105.46875 327.355469 105.542969 326.59375 105.695312 325.839844 C 105.84375 325.085938 106.066406 324.351562 106.359375 323.640625 C 106.65625 322.929688 107.015625 322.253906 107.445312 321.613281 C 107.871094 320.972656 108.355469 320.382812 108.902344 319.839844 C 109.445312 319.292969 110.035156 318.808594 110.675781 318.382812 C 111.316406 317.953125 111.992188 317.59375 112.703125 317.296875 C 113.414062 317.003906 114.148438 316.78125 114.902344 316.632812 C 115.65625 316.480469 116.417969 316.40625 117.1875 316.40625 L 134.765625 316.40625 C 138.671875 308.59375 140.625 296.875 140.625 281.25 L 46.875 281.25 C 46.875 281.25 0 281.25 0 234.375 Z M 32.765625 73.710938 C 30.148438 75.535156 28.164062 77.894531 26.8125 80.789062 C 24.820312 84.964844 23.695312 89.363281 23.4375 93.984375 L 23.4375 234.375 C 23.4375 241.992188 25.265625 246.140625 26.835938 248.484375 C 28.476562 250.921875 30.835938 252.90625 33.914062 254.4375 C 37.90625 256.347656 42.109375 257.464844 46.523438 257.789062 L 47.109375 257.8125 L 328.125 257.8125 C 335.742188 257.8125 339.890625 255.984375 342.234375 254.414062 C 344.851562 252.589844 346.835938 250.230469 348.1875 247.335938 C 350.097656 243.34375 351.214844 239.140625 351.539062 234.726562 L 351.5625 234.140625 L 351.5625 93.75 C 351.5625 86.132812 349.734375 81.984375 348.164062 79.640625 C 346.339844 77.023438 343.980469 75.039062 341.085938 73.6875 C 336.910156 71.695312 332.511719 70.570312 327.890625 70.3125 L 46.875 70.3125 C 39.257812 70.3125 35.109375 72.140625 32.765625 73.710938 "/></g></svg>