<svg xmlns="http://www.w3.org/2000/svg" xmlns:xlink="http://www.w3.org/1999/xlink" width="64" zoomAndPan="magnify" viewBox="0 0 48 48" height="64" preserveAspectRatio="xMidYMid meet" version="1.2"><defs><clipPath id="4100cc1612"><path d="M 1.078125 9 L 17 9 L 17 21 L 1.078125 21 Z M 1.078125 9 "/></clipPath><clipPath id="4fcd07ffb6"><path d="M 31 9 L 46.628906 9 L 46.628906 21 L 31 21 Z M 31 9 "/></clipPath></defs><g id="0c06aee1e0"><path style=" stroke:none;fill-rule:nonzero;fill:#4dff89;fill-opacity:1;" d="M 19.734375 14.464844 L 19.667969 14.46875 C 19.457031 14.484375 19.320312 14.542969 19.261719 14.644531 C 19.175781 14.710938 19.09375 14.949219 19.011719 15.363281 L 18.472656 20.234375 C 18.453125 20.464844 18.503906 20.578125 18.617188 20.578125 C 18.640625 20.582031 18.679688 20.570312 18.726562 20.554688 L 20.570312 19.039062 L 23.796875 16.910156 L 23.871094 15.503906 C 23.121094 15.234375 22.355469 15.003906 21.578125 14.8125 C 20.394531 14.542969 19.78125 14.425781 19.734375 14.464844 "/><path style=" stroke:none;fill-rule:nonzero;fill:#4dff89;fill-opacity:1;" d="M 27.972656 14.464844 L 28.039062 14.46875 C 28.25 14.484375 28.386719 14.542969 28.445312 14.644531 C 28.53125 14.710938 28.613281 14.949219 28.699219 15.363281 L 29.234375 20.234375 C 29.253906 20.464844 29.203125 20.578125 29.089844 20.578125 C 29.066406 20.582031 29.03125 20.570312 28.980469 20.554688 L 27.140625 19.039062 L 23.910156 16.910156 L 23.835938 15.503906 C 24.589844 15.234375 25.351562 15.003906 26.128906 14.8125 C 27.3125 14.542969 27.925781 14.425781 27.972656 14.464844 "/><path style=" stroke:none;fill-rule:nonzero;fill:#4dff89;fill-opacity:1;" d="M 23.871094 17.925781 L 23.402344 18.320312 C 21.613281 19.855469 20.367188 21.011719 19.664062 21.789062 C 19.613281 21.90625 19.585938 22.066406 19.585938 22.257812 C 19.597656 22.582031 19.613281 22.796875 19.632812 22.910156 C 19.695312 23.363281 19.761719 23.808594 19.828125 24.234375 L 19.875 24.46875 C 19.921875 24.675781 19.949219 24.792969 19.960938 24.820312 C 19.976562 24.863281 20.007812 24.871094 20.054688 24.851562 C 21.289062 23.453125 21.972656 22.695312 22.109375 22.578125 C 22.953125 21.710938 23.519531 21.167969 23.804688 20.957031 L 24.046875 20.632812 L 23.871094 17.925781 "/><path style=" stroke:none;fill-rule:nonzero;fill:#4dff89;fill-opacity:1;" d="M 23.835938 17.925781 L 24.304688 18.320312 C 26.09375 19.855469 27.339844 21.011719 28.042969 21.789062 C 28.09375 21.90625 28.121094 22.066406 28.121094 22.257812 C 28.113281 22.582031 28.09375 22.796875 28.074219 22.910156 C 28.011719 23.363281 27.945312 23.808594 27.882812 24.234375 L 27.832031 24.46875 C 27.785156 24.675781 27.757812 24.792969 27.75 24.820312 C 27.730469 24.863281 27.699219 24.871094 27.65625 24.851562 C 26.417969 23.453125 25.734375 22.695312 25.597656 22.578125 C 24.753906 21.710938 24.191406 21.167969 23.902344 20.957031 L 23.660156 20.632812 L 23.835938 17.925781 "/><path style=" stroke:none;fill-rule:nonzero;fill:#4dff89;fill-opacity:1;" d="M 17.742188 12.265625 L 17.660156 12.335938 C 17.441406 12.578125 17.207031 13.238281 16.964844 14.3125 L 16.789062 16.265625 C 16.746094 16.582031 16.617188 17.285156 16.410156 18.367188 C 16.230469 20.269531 15.988281 22.085938 15.6875 23.820312 C 15.671875 23.96875 15.675781 24.105469 15.699219 24.230469 C 15.710938 24.28125 15.75 24.316406 15.816406 24.339844 C 16.214844 24.300781 16.628906 24.304688 17.0625 24.359375 C 17.214844 24.371094 17.394531 24.433594 17.601562 24.539062 C 17.527344 25.101562 17.496094 25.613281 17.507812 26.074219 L 17.558594 26.726562 C 17.609375 27.136719 17.707031 27.496094 17.847656 27.808594 C 18.121094 28.425781 18.570312 28.847656 19.1875 29.066406 C 19.347656 29.082031 19.566406 29.019531 19.851562 28.875 C 20.351562 28.488281 21.074219 28.035156 22.007812 27.519531 C 22.523438 27.253906 22.992188 27.066406 23.414062 26.957031 C 23.566406 26.660156 23.644531 26.476562 23.652344 26.402344 C 23.730469 26.140625 23.769531 25.859375 23.773438 25.550781 C 23.753906 24.785156 23.65625 24.386719 23.488281 24.359375 L 20.554688 26.585938 C 20.058594 26.953125 19.726562 27.125 19.5625 27.113281 L 19.433594 26.953125 C 19.40625 26.90625 19.390625 26.839844 19.386719 26.761719 L 19.257812 22.417969 C 18.941406 22.363281 18.328125 22.613281 17.414062 23.167969 L 17.441406 22.117188 C 17.496094 20.722656 17.613281 19.359375 17.800781 18.03125 C 17.894531 17.367188 18.003906 16.707031 18.128906 16.058594 C 18.257812 15.410156 18.398438 14.769531 18.5625 14.136719 C 18.582031 14.042969 18.617188 13.96875 18.65625 13.914062 C 18.683594 13.859375 18.75 13.820312 18.859375 13.789062 C 19.484375 14.042969 20.152344 14.246094 20.859375 14.398438 C 21.367188 14.539062 22.3125 14.652344 23.699219 14.738281 L 23.992188 13.164062 L 17.742188 12.265625 "/><path style=" stroke:none;fill-rule:nonzero;fill:#4dff89;fill-opacity:1;" d="M 29.96875 12.265625 L 30.046875 12.335938 C 30.265625 12.578125 30.5 13.238281 30.746094 14.3125 L 30.917969 16.265625 C 30.960938 16.582031 31.089844 17.285156 31.300781 18.367188 C 31.480469 20.269531 31.71875 22.085938 32.019531 23.820312 C 32.035156 23.96875 32.03125 24.105469 32.007812 24.230469 C 32 24.28125 31.960938 24.316406 31.890625 24.339844 C 31.492188 24.300781 31.078125 24.304688 30.644531 24.359375 C 30.492188 24.371094 30.3125 24.433594 30.105469 24.539062 C 30.179688 25.101562 30.210938 25.613281 30.199219 26.074219 L 30.148438 26.726562 C 30.097656 27.136719 30 27.496094 29.863281 27.808594 C 29.585938 28.425781 29.136719 28.847656 28.519531 29.066406 C 28.363281 29.082031 28.140625 29.019531 27.859375 28.875 C 27.355469 28.488281 26.636719 28.035156 25.699219 27.519531 C 25.183594 27.253906 24.714844 27.066406 24.292969 26.957031 C 24.144531 26.660156 24.0625 26.476562 24.054688 26.402344 C 23.976562 26.140625 23.9375 25.859375 23.9375 25.550781 C 23.953125 24.785156 24.050781 24.386719 24.21875 24.359375 L 27.152344 26.585938 C 27.648438 26.953125 27.980469 27.125 28.144531 27.113281 L 28.273438 26.953125 C 28.300781 26.90625 28.316406 26.839844 28.324219 26.761719 L 28.449219 22.417969 C 28.765625 22.363281 29.378906 22.613281 30.292969 23.167969 L 30.265625 22.117188 C 30.214844 20.722656 30.09375 19.359375 29.90625 18.03125 C 29.8125 17.367188 29.703125 16.707031 29.578125 16.058594 C 29.449219 15.410156 29.308594 14.769531 29.148438 14.136719 C 29.125 14.042969 29.09375 13.96875 29.050781 13.914062 C 29.023438 13.859375 28.957031 13.820312 28.847656 13.789062 C 28.222656 14.042969 27.558594 14.246094 26.851562 14.398438 C 26.34375 14.539062 25.394531 14.652344 24.007812 14.738281 L 23.71875 13.164062 L 29.96875 12.265625 "/><path style=" stroke:none;fill-rule:nonzero;fill:#4dff89;fill-opacity:1;" d="M 17.121094 11.992188 L 16.066406 13.511719 L 14.332031 16.394531 C 14.207031 16.605469 14.125 16.773438 14.09375 16.894531 C 14.261719 18.160156 14.398438 19.066406 14.5 19.609375 C 14.546875 19.875 14.742188 20.871094 15.097656 22.589844 C 15.121094 22.699219 15.144531 22.738281 15.160156 22.707031 C 15.289062 22.371094 15.46875 21.644531 15.6875 20.53125 C 15.742188 20.257812 15.882812 19.234375 16.105469 17.460938 C 16.15625 17.109375 16.214844 16.753906 16.273438 16.398438 C 16.492188 15.113281 16.773438 13.644531 17.121094 11.992188 "/><path style=" stroke:none;fill-rule:nonzero;fill:#4dff89;fill-opacity:1;" d="M 30.585938 11.992188 L 31.640625 13.511719 L 33.375 16.394531 C 33.503906 16.605469 33.582031 16.773438 33.613281 16.894531 C 33.445312 18.160156 33.308594 19.066406 33.207031 19.609375 C 33.164062 19.875 32.964844 20.871094 32.609375 22.589844 C 32.585938 22.699219 32.566406 22.738281 32.546875 22.707031 C 32.417969 22.371094 32.242188 21.644531 32.019531 20.53125 C 31.964844 20.257812 31.824219 19.234375 31.601562 17.460938 C 31.550781 17.109375 31.496094 16.753906 31.433594 16.398438 C 31.214844 15.113281 30.933594 13.644531 30.585938 11.992188 "/><path style=" stroke:none;fill-rule:nonzero;fill:#4dff89;fill-opacity:1;" d="M 17.113281 24.867188 L 16.472656 25.925781 C 15.992188 26.953125 15.644531 27.785156 15.429688 28.421875 C 15.320312 28.738281 15.246094 29.007812 15.203125 29.226562 C 15.160156 29.445312 15.152344 29.617188 15.171875 29.738281 L 15.230469 29.886719 C 15.890625 30.0625 16.480469 30.261719 16.992188 30.480469 C 17.707031 30.816406 18.460938 31.257812 19.25 31.808594 C 19.324219 31.855469 19.453125 31.914062 19.632812 31.976562 C 19.832031 32.03125 20.035156 31.886719 20.238281 31.550781 C 20.714844 30.730469 21.011719 30.183594 21.128906 29.917969 C 21.296875 29.597656 21.398438 29.28125 21.433594 28.960938 C 21.394531 28.90625 21.332031 28.882812 21.246094 28.886719 C 20.101562 29.152344 19.265625 29.273438 18.742188 29.246094 C 18.015625 29.253906 17.464844 29.136719 17.09375 28.886719 C 16.953125 28.730469 16.882812 28.578125 16.890625 28.425781 C 16.925781 27.378906 17 26.195312 17.113281 24.867188 "/><path style=" stroke:none;fill-rule:nonzero;fill:#4dff89;fill-opacity:1;" d="M 30.59375 24.867188 L 31.238281 25.925781 C 31.714844 26.953125 32.0625 27.785156 32.277344 28.421875 C 32.386719 28.738281 32.460938 29.007812 32.503906 29.226562 C 32.546875 29.445312 32.558594 29.617188 32.535156 29.738281 L 32.476562 29.886719 C 31.816406 30.0625 31.230469 30.261719 30.71875 30.480469 C 30 30.816406 29.246094 31.257812 28.460938 31.808594 C 28.382812 31.855469 28.253906 31.914062 28.074219 31.976562 C 27.875 32.03125 27.675781 31.886719 27.46875 31.550781 C 26.992188 30.730469 26.695312 30.183594 26.578125 29.917969 C 26.410156 29.597656 26.308594 29.28125 26.273438 28.960938 C 26.3125 28.90625 26.375 28.882812 26.460938 28.886719 C 27.605469 29.152344 28.441406 29.273438 28.964844 29.246094 C 29.691406 29.253906 30.242188 29.136719 30.617188 28.886719 C 30.757812 28.730469 30.824219 28.578125 30.816406 28.425781 C 30.78125 27.378906 30.707031 26.195312 30.59375 24.867188 "/><path style=" stroke:none;fill-rule:nonzero;fill:#4dff89;fill-opacity:1;" d="M 23.140625 27.785156 L 23.136719 27.789062 C 22.863281 28.523438 22.363281 29.730469 21.636719 31.40625 C 21.378906 31.976562 21.085938 32.539062 20.765625 33.097656 L 22.144531 35.679688 C 22.269531 35.917969 22.5625 36.542969 23.023438 37.550781 C 23.136719 37.765625 23.226562 37.859375 23.292969 37.839844 C 23.316406 37.832031 23.332031 37.820312 23.34375 37.804688 C 23.261719 36.777344 23.210938 36.085938 23.191406 35.734375 C 23.183594 35.597656 23.179688 35.414062 23.183594 35.195312 C 23.183594 35.007812 23.1875 34.804688 23.195312 34.585938 C 23.261719 33.265625 23.292969 32.484375 23.300781 32.246094 C 23.316406 31.863281 23.320312 31.535156 23.320312 31.257812 C 23.304688 30.644531 23.273438 29.644531 23.226562 28.261719 C 23.207031 27.972656 23.179688 27.816406 23.140625 27.785156 "/><path style=" stroke:none;fill-rule:nonzero;fill:#4dff89;fill-opacity:1;" d="M 24.566406 27.785156 L 24.570312 27.789062 C 24.84375 28.523438 25.34375 29.730469 26.070312 31.40625 C 26.328125 31.976562 26.621094 32.539062 26.941406 33.097656 L 25.5625 35.679688 C 25.4375 35.917969 25.144531 36.542969 24.683594 37.550781 C 24.570312 37.765625 24.480469 37.859375 24.414062 37.839844 C 24.394531 37.832031 24.375 37.820312 24.367188 37.804688 C 24.445312 36.777344 24.496094 36.085938 24.515625 35.734375 C 24.527344 35.597656 24.527344 35.414062 24.523438 35.195312 C 24.523438 35.007812 24.519531 34.804688 24.511719 34.585938 C 24.449219 33.265625 24.414062 32.484375 24.40625 32.246094 C 24.394531 31.863281 24.386719 31.535156 24.390625 31.257812 C 24.402344 30.644531 24.433594 29.644531 24.480469 28.261719 C 24.5 27.972656 24.527344 27.816406 24.566406 27.785156 "/><path style=" stroke:none;fill-rule:nonzero;fill:#4dff89;fill-opacity:1;" d="M 22.347656 10.214844 L 22.269531 10.214844 C 21.824219 10.214844 21.3125 10.273438 20.734375 10.394531 C 20.679688 10.402344 20.566406 10.4375 20.390625 10.496094 C 20.121094 10.59375 19.886719 10.6875 19.683594 10.78125 C 19.410156 10.902344 19.15625 11.058594 18.917969 11.253906 C 18.625 11.527344 18.339844 11.828125 18.066406 12.160156 C 18.074219 12.175781 18.117188 12.164062 18.199219 12.125 C 18.457031 11.96875 18.730469 11.832031 19.023438 11.714844 C 19.355469 11.585938 19.699219 11.484375 20.054688 11.410156 C 20.117188 11.425781 20.140625 11.453125 20.125 11.496094 C 19.804688 12.097656 19.667969 12.445312 19.714844 12.535156 C 19.761719 12.542969 19.863281 12.503906 20.023438 12.417969 C 20.804688 11.949219 21.265625 11.683594 21.40625 11.625 C 21.472656 11.609375 21.5 11.621094 21.488281 11.667969 L 21.308594 12.332031 C 21.304688 12.367188 21.320312 12.386719 21.347656 12.390625 C 21.398438 12.390625 21.496094 12.355469 21.652344 12.28125 C 21.964844 12.128906 22.25 11.980469 22.511719 11.839844 C 22.570312 11.8125 22.613281 11.804688 22.636719 11.804688 C 22.644531 11.804688 22.648438 11.808594 22.652344 11.816406 C 22.558594 12.105469 22.476562 12.40625 22.40625 12.726562 C 22.371094 12.878906 22.378906 12.960938 22.425781 12.976562 L 22.785156 12.789062 C 22.875 12.746094 22.945312 12.714844 22.996094 12.699219 C 23.195312 12.640625 23.4375 12.597656 23.71875 12.570312 L 23.707031 10.214844 C 23.574219 10.230469 23.417969 10.238281 23.234375 10.242188 C 22.832031 10.21875 22.535156 10.210938 22.347656 10.214844 "/><path style=" stroke:none;fill-rule:nonzero;fill:#4dff89;fill-opacity:1;" d="M 25.359375 10.214844 L 25.4375 10.214844 C 25.882812 10.214844 26.394531 10.273438 26.972656 10.394531 C 27.027344 10.402344 27.140625 10.4375 27.316406 10.496094 C 27.585938 10.59375 27.820312 10.6875 28.023438 10.78125 C 28.296875 10.902344 28.554688 11.058594 28.789062 11.253906 C 29.082031 11.527344 29.367188 11.828125 29.640625 12.160156 C 29.632812 12.175781 29.589844 12.164062 29.507812 12.125 C 29.25 11.96875 28.976562 11.832031 28.683594 11.714844 C 28.351562 11.585938 28.007812 11.484375 27.652344 11.410156 C 27.589844 11.425781 27.566406 11.453125 27.582031 11.496094 C 27.90625 12.097656 28.039062 12.445312 27.992188 12.535156 C 27.945312 12.542969 27.84375 12.503906 27.683594 12.417969 C 26.902344 11.949219 26.441406 11.683594 26.304688 11.625 C 26.238281 11.609375 26.207031 11.621094 26.21875 11.667969 L 26.398438 12.332031 C 26.402344 12.367188 26.390625 12.386719 26.359375 12.390625 C 26.3125 12.390625 26.210938 12.355469 26.054688 12.28125 C 25.742188 12.128906 25.457031 11.980469 25.199219 11.839844 C 25.136719 11.8125 25.09375 11.804688 25.070312 11.804688 C 25.0625 11.804688 25.058594 11.808594 25.054688 11.816406 C 25.148438 12.105469 25.230469 12.40625 25.304688 12.726562 C 25.335938 12.878906 25.328125 12.960938 25.28125 12.976562 L 24.921875 12.789062 C 24.832031 12.746094 24.761719 12.714844 24.714844 12.699219 C 24.511719 12.640625 24.269531 12.597656 23.988281 12.570312 L 24 10.214844 C 24.132812 10.230469 24.289062 10.238281 24.472656 10.242188 C 24.875 10.21875 25.171875 10.210938 25.359375 10.214844 "/><g clip-rule="nonzero" clip-path="url(#4100cc1612)"><path style=" stroke:none;fill-rule:nonzero;fill:#4dff89;fill-opacity:1;" d="M 9.507812 9.023438 L 8.828125 9.039062 C 7.488281 9.101562 6.285156 9.347656 5.210938 9.777344 L 4.683594 10.007812 C 4.273438 10.207031 4.011719 10.355469 3.902344 10.457031 C 3.71875 10.597656 3.546875 10.769531 3.382812 10.972656 L 3.144531 11.296875 C 2.660156 12.078125 2.308594 12.980469 2.085938 14.003906 C 2.015625 14.308594 1.964844 14.761719 1.925781 15.351562 C 1.957031 17.46875 1.949219 18.582031 1.90625 18.691406 C 1.882812 19.265625 1.621094 19.835938 1.128906 20.402344 C 1.121094 20.449219 1.175781 20.476562 1.28125 20.484375 C 1.953125 20.433594 2.519531 20.058594 2.984375 19.355469 C 3.15625 19.128906 3.316406 18.789062 3.460938 18.34375 C 3.707031 17.625 4 16.535156 4.339844 15.070312 C 4.386719 14.953125 4.4375 14.839844 4.496094 14.734375 C 4.890625 14.089844 5.445312 13.679688 6.164062 13.507812 C 7.207031 13.195312 8.492188 13.363281 10.019531 14.011719 C 10.429688 14.167969 10.933594 14.4375 11.53125 14.820312 C 12.039062 15.164062 12.695312 15.714844 13.492188 16.480469 C 13.585938 16.550781 13.660156 16.582031 13.710938 16.574219 C 14.203125 15.808594 14.796875 14.726562 15.492188 13.332031 C 15.855469 12.566406 16.128906 11.878906 16.3125 11.269531 L 15.582031 11.484375 L 15.011719 11.320312 C 14.644531 11.203125 14.296875 11.0625 13.972656 10.902344 C 12.921875 10.113281 12.277344 9.664062 12.035156 9.5625 C 11.132812 9.164062 10.292969 8.984375 9.507812 9.023438 "/></g><g clip-rule="nonzero" clip-path="url(#4fcd07ffb6)"><path style=" stroke:none;fill-rule:nonzero;fill:#4dff89;fill-opacity:1;" d="M 38.199219 9.023438 L 38.878906 9.039062 C 40.21875 9.101562 41.425781 9.347656 42.496094 9.777344 L 43.023438 10.007812 C 43.433594 10.207031 43.695312 10.355469 43.808594 10.457031 C 43.988281 10.597656 44.160156 10.769531 44.324219 10.972656 L 44.5625 11.296875 C 45.046875 12.078125 45.398438 12.980469 45.621094 14.003906 C 45.691406 14.308594 45.742188 14.761719 45.78125 15.351562 C 45.753906 17.46875 45.757812 18.582031 45.800781 18.691406 C 45.824219 19.265625 46.085938 19.835938 46.578125 20.402344 C 46.585938 20.449219 46.535156 20.476562 46.425781 20.484375 C 45.753906 20.433594 45.1875 20.058594 44.722656 19.355469 C 44.550781 19.128906 44.390625 18.789062 44.246094 18.34375 C 44 17.625 43.707031 16.535156 43.367188 15.070312 C 43.324219 14.953125 43.269531 14.839844 43.214844 14.734375 C 42.816406 14.089844 42.261719 13.679688 41.546875 13.507812 C 40.5 13.195312 39.214844 13.363281 37.6875 14.011719 C 37.277344 14.167969 36.773438 14.4375 36.179688 14.820312 C 35.667969 15.164062 35.011719 15.714844 34.214844 16.480469 C 34.121094 16.550781 34.050781 16.582031 33.996094 16.574219 C 33.503906 15.808594 32.910156 14.726562 32.214844 13.332031 C 31.851562 12.566406 31.578125 11.878906 31.394531 11.269531 L 32.125 11.484375 L 32.695312 11.320312 C 33.066406 11.203125 33.410156 11.0625 33.734375 10.902344 C 34.785156 10.113281 35.429688 9.664062 35.671875 9.5625 C 36.574219 9.164062 37.417969 8.984375 38.199219 9.023438 "/></g></g></svg>